# xmcd CD database file
#
# Track frame offsets:
#	150
#	14525
#	34325
#	51137
#	67587
#	90862
#	105700
#	123450
#	139000
#	155025
#
# Disc length: 2273 seconds
#
# Revision: 0
# Processed by: cddbd v1.5.1PL0 Copyright (c) Steve Scherf et al.
# Submitted via: CDex 1.51
#
DISCID=7c08df0a
DTITLE=Coupe De Ville - The Fever
DYEAR=1900
DGENRE=Country
TTITLE0=All Love Broke Loose
TTITLE1=New Love On Your Mind
TTITLE2=Welcome To My World
TTITLE3=Easier Done Than Said
TTITLE4=Thunder Rolls
TTITLE5=I Can't Love Without You
TTITLE6=Ghost In This House
TTITLE7=Out Of The Blues Into The Red
TTITLE8=Crying
TTITLE9=Powder Blue Dadillac Coupe De Ville
EXTD=
EXTT0=
EXTT1=
EXTT2=
EXTT3=
EXTT4=
EXTT5=
EXTT6=
EXTT7=
EXTT8=
EXTT9=
PLAYORDER=
